<svg width="148" height="35" viewBox="0 0 148 35" fill="none" xmlns="http://www.w3.org/2000/svg">
<g clip-path="url(#clip0_4317_200)">
<mask id="mask0_4317_200" style="mask-type:luminance" maskUnits="userSpaceOnUse" x="0" y="0" width="148" height="35">
<path d="M147.68 0H0V35H147.68V0Z" fill="white"/>
</mask>
<g mask="url(#mask0_4317_200)">
<path d="M49.5163 17.989L49.8768 15.5837H45.3339L46.0859 10.1705H49.936L50.3275 7.43295H46.4774L47.1392 2.6816H51.6822L52.0427 0.21439H43.8609L41.3345 17.9918H49.5163V17.989ZM28.2493 17.989L30.1138 4.69254L30.7757 17.989H33.1528L37.5746 4.69254L35.7101 17.989H38.7772L41.3036 0.211573H36.9719L32.8824 11.7027L32.0684 0.211573H27.7057L25.1794 17.989H28.2465H28.2493ZM19.8563 3.30967L19.707 12.9645H17.2117L19.8591 3.30967H19.8563ZM15.9471 17.989L16.9385 14.7106H19.524L19.5831 17.989H23.4923L22.8952 0.211573H17.8707L12.1871 17.989H15.9471ZM7.08934 17.8848C7.60193 17.5947 7.98778 17.2792 8.2469 16.9385C8.28633 16.899 8.32576 16.8483 8.368 16.7892C8.40743 16.73 8.44686 16.6681 8.48911 16.6089V17.9918H11.1056L12.3392 9.05804H7.52589L7.25551 11.0436H8.70034L8.18775 14.5924C8.10607 15.1754 7.90329 15.6063 7.57095 15.8851C7.24142 16.1668 6.85275 16.3076 6.41339 16.3076C6.11203 16.3076 5.84728 16.2625 5.61633 16.1724C5.38538 16.0823 5.23048 15.9133 5.1488 15.6598C5.06994 15.4091 5.05868 15.0543 5.11782 14.5924L6.62181 3.82508C6.68095 3.34346 6.79643 2.97733 6.96823 2.72666C7.13722 2.476 7.34563 2.30983 7.58503 2.23097C7.82725 2.15211 8.09762 2.10986 8.39617 2.10986C8.71724 2.10986 8.98199 2.14929 9.19322 2.23097C9.40446 2.30983 9.55936 2.476 9.65794 2.72666C9.75933 2.97733 9.76778 3.34346 9.68892 3.82508L9.32841 6.50352H12.6969L13.0884 4.00815C13.2292 2.96606 13.1222 2.15211 12.7729 1.57192C12.4209 0.991729 11.8857 0.583345 11.1647 0.355212C10.4437 0.124263 9.59034 0.00878906 8.6074 0.00878906C7.62446 0.00878906 6.77389 0.124263 5.99092 0.355212C5.20795 0.586161 4.57143 0.991729 4.08137 1.57192C3.58849 2.15492 3.27305 2.96606 3.13504 4.00815L1.75217 13.7531C1.57191 15.0571 1.62261 16.0344 1.90144 16.685C2.18308 17.3356 2.60837 17.7721 3.18011 17.9946C3.75184 18.2143 4.36865 18.3242 5.03051 18.3242C5.89235 18.3242 6.57956 18.1777 7.09215 17.8876" fill="white"/>
<path d="M42.1318 34.7022L43.5147 24.9404L46.1481 34.7022H47.3986L49.2405 21.7381H47.99L46.5649 31.8717L43.9315 21.7381H42.7261L40.8841 34.7022H42.1346H42.1318ZM34.1247 33.9784C33.8458 33.8911 33.643 33.7052 33.5107 33.4179C33.3783 33.1334 33.3501 32.6969 33.4234 32.1139L34.4992 24.4363C34.5866 23.8504 34.733 23.4195 34.9386 23.1407C35.1442 22.8619 35.4005 22.676 35.7075 22.5802C36.0145 22.4845 36.3581 22.4366 36.7383 22.4366C37.1185 22.4366 37.4255 22.4845 37.7044 22.5802C37.9832 22.676 38.186 22.8619 38.3183 23.1407C38.4507 23.4195 38.4733 23.8504 38.3831 24.4363L37.3298 32.1139C37.2425 32.6997 37.0932 33.1334 36.8791 33.4179C36.6679 33.7024 36.4088 33.8883 36.1018 33.9784C35.7948 34.0657 35.4568 34.1108 35.0935 34.1108C34.7302 34.1108 34.4063 34.0685 34.1275 33.9784M36.7271 34.7473C37.2453 34.6008 37.6818 34.2966 38.0311 33.8376C38.3831 33.3757 38.6225 32.6715 38.7549 31.7196L39.7857 24.4363C39.8871 23.6336 39.8251 23.0252 39.5998 22.6168C39.3717 22.2084 39.0225 21.9296 38.5465 21.7832C38.0705 21.6367 37.5128 21.5635 36.8679 21.5635C36.2229 21.5635 35.6653 21.6339 35.147 21.7719C34.6288 21.9099 34.1951 22.1859 33.8515 22.5943C33.5079 23.0027 33.2769 23.6167 33.1614 24.4363L32.1306 31.7393C31.9982 32.6744 32.0405 33.3728 32.2517 33.8347C32.463 34.2938 32.8066 34.598 33.2825 34.7445C33.7585 34.8909 34.3162 34.9641 34.9611 34.9641C35.6061 34.9641 36.2088 34.8909 36.7271 34.7445M29.148 34.6994L30.9899 21.7353H29.6071L27.7651 34.6994H29.148ZM23.9066 34.6994L25.5964 22.7239H27.813L27.9651 21.7381H22.197L22.0449 22.7239H24.2164L22.5265 34.6994H23.9094H23.9066ZM18.2258 23.4251L18.6877 30.9254H15.6178L18.2286 23.4251H18.2258ZM14.3645 34.6994L15.4601 31.6942H18.6398L18.9018 34.6994H20.3945L19.4059 21.7353H17.6062L12.914 34.6994H14.3616H14.3645ZM10.7453 34.6994L12.4352 22.7239H14.6489L14.8038 21.7381H9.03573L8.88083 22.7239H11.0523L9.36244 34.6994H10.7453ZM4.61391 34.5135C5.11805 34.2882 5.54615 33.9136 5.89821 33.3954C6.25027 32.8771 6.48966 32.1702 6.62204 31.2774C6.72343 30.517 6.71216 29.9255 6.58824 29.5002C6.46432 29.0778 6.21647 28.7285 5.84188 28.4581C5.47011 28.1878 4.96878 27.9286 4.34071 27.678C3.93233 27.5174 3.56901 27.3428 3.25356 27.1513C2.93812 26.9626 2.69872 26.7063 2.52974 26.3824C2.36075 26.0613 2.31287 25.622 2.3861 25.0671C2.50157 24.3067 2.72971 23.7406 3.06486 23.3688C3.40002 22.997 3.89008 22.8083 4.53505 22.8083C5.13495 22.8083 5.5546 22.9886 5.79682 23.3463C6.03903 23.704 6.11508 24.2335 6.02777 24.9376L5.87568 26.0332H7.21349L7.41064 24.6081C7.54302 23.6871 7.37121 22.9745 6.89523 22.4704C6.41925 21.9662 5.67853 21.7127 4.67024 21.7127C3.89571 21.7127 3.2592 21.8367 2.76069 22.0845C2.26217 22.3324 1.8735 22.7098 1.58623 23.2139C1.30177 23.7181 1.10743 24.3518 1.00604 25.1122C0.918729 25.7853 0.946893 26.3402 1.09335 26.7795C1.2398 27.2189 1.47639 27.5738 1.80591 27.8442C2.13543 28.1145 2.51847 28.3455 2.95784 28.5342C3.4986 28.768 3.94923 28.9848 4.30692 29.182C4.66461 29.3791 4.9209 29.6439 5.07581 29.9706C5.23071 30.3001 5.26169 30.793 5.17438 31.452C5.04201 32.373 4.77163 33.0123 4.36325 33.37C3.95486 33.7277 3.50141 33.908 3.0029 33.908C2.6086 33.908 2.27907 33.8291 2.01714 33.6658C1.7524 33.5052 1.56933 33.2236 1.46794 32.8208C1.36654 32.4181 1.37218 31.852 1.49047 31.1225L1.60031 30.3114H0.194902L0.0850601 31.0352C-0.047313 32.0153 -0.0247814 32.7786 0.149838 33.3278C0.324458 33.877 0.653983 34.2685 1.1356 34.5022C1.61721 34.736 2.23964 34.8543 3.00008 34.8543C3.57182 34.8543 4.10695 34.7416 4.61109 34.5135" fill="white"/>
</g>
<path d="M58.5577 0.191406H147.681L143.406 34.9999H54.2852L58.5577 0.191406Z" fill="#FF0404"/>
<path d="M134.512 29.3363C135.568 28.9026 136.461 28.1787 137.19 27.1648C137.919 26.1509 138.407 24.7765 138.652 23.0444C138.869 21.501 138.86 20.318 138.632 19.4928C138.401 18.6676 137.942 18.017 137.252 17.5438C136.562 17.0707 135.649 16.6031 134.512 16.1441C133.754 15.8455 133.123 15.5554 132.625 15.271C132.123 14.9865 131.751 14.6007 131.509 14.1134C131.267 13.6262 131.197 12.9756 131.306 12.1644C131.47 11.1899 131.718 10.4858 132.058 10.0521C132.396 9.61836 132.932 9.40149 133.661 9.40149C134.39 9.40149 134.866 9.6437 135.08 10.1309C135.297 10.6182 135.325 11.4716 135.162 12.6883L134.92 14.15H139.629L140.035 11.266C140.305 9.39867 139.933 7.9989 138.919 7.06384C137.905 6.12878 136.3 5.66406 134.109 5.66406C132.43 5.66406 131.07 5.88656 130.028 6.33438C128.986 6.78219 128.18 7.49194 127.611 8.46643C127.042 9.44092 126.651 10.714 126.434 12.2827C126.271 13.5276 126.279 14.5838 126.454 15.4484C126.628 16.3159 126.98 17.0312 127.51 17.6002C128.037 18.1691 128.749 18.6563 129.642 19.0619C130.67 19.5238 131.495 19.9097 132.118 20.2195C132.74 20.5321 133.179 20.9377 133.436 21.4362C133.692 21.9375 133.74 22.6895 133.576 23.6893C133.388 24.9877 133.084 25.8608 132.664 26.3086C132.244 26.7564 131.737 26.9789 131.14 26.9789C130.735 26.9789 130.388 26.8776 130.107 26.6748C129.822 26.472 129.639 26.1058 129.557 25.5792C129.476 25.0525 129.504 24.2864 129.639 23.2866L129.881 21.4587H124.969L124.767 22.881C124.524 24.7483 124.589 26.196 124.969 27.224C125.35 28.252 126.051 28.9702 127.082 29.3757C128.11 29.7813 129.436 29.9841 131.061 29.9841C132.306 29.9841 133.458 29.7672 134.512 29.3335M118.677 29.6996L121.601 9.03535H125.336L125.823 5.70631H113.642L113.154 9.03535H116.889L113.966 29.6996H118.675H118.677ZM102.438 8.26364H104.792C105.305 8.26364 105.699 8.44108 105.97 8.79032C106.24 9.14238 106.308 9.75073 106.172 10.6182L105.767 13.5022C105.632 14.4767 105.361 15.1668 104.956 15.5723C104.55 15.9779 103.995 16.1807 103.291 16.1807H101.342L102.438 8.26364ZM99.4327 29.6996L100.894 19.428H102.274C102.545 19.428 102.756 19.5294 102.905 19.7322C103.055 19.935 103.17 20.2138 103.252 20.5659C103.333 20.9179 103.387 21.3094 103.415 21.7432L103.984 29.6996H109.223L108.127 21.4165C107.992 20.3603 107.761 19.597 107.437 19.1239C107.113 18.6507 106.502 18.3465 105.609 18.2113C107.043 18.0762 108.161 17.5748 108.958 16.7102C109.755 15.8427 110.251 14.7753 110.439 13.5022L110.927 9.76763C111.143 8.49459 110.893 7.50039 110.175 6.78219C109.456 6.064 108.299 5.70631 106.702 5.70631H97.9315L94.5208 29.6996H99.4327ZM87.3332 9.88592L87.1304 22.9176H83.762L87.3332 9.88592ZM82.0552 29.6996L83.3958 25.275H86.8882L86.9699 29.6996H92.2479L91.4368 5.70631H84.6576L76.9856 29.6996H82.0608H82.0552ZM69.8769 8.38475H71.947C72.4877 8.38475 72.8933 8.54811 73.1637 8.872C73.4341 9.19589 73.5016 9.80706 73.3665 10.6999L71.378 24.9511C71.2429 25.8439 70.9978 26.4523 70.6458 26.779C70.2937 27.1029 69.8459 27.2662 69.3051 27.2662H67.2351L69.8741 8.38757L69.8769 8.38475ZM69.7135 29.6996C70.8767 29.6996 71.9047 29.5504 72.7975 29.2518C73.6904 28.9533 74.4283 28.4266 75.0113 27.669C75.5943 26.9113 75.966 25.8693 76.1266 24.5427L78.1572 10.1704C78.3206 9.17054 78.2586 8.33687 77.9742 7.67219C77.6897 7.01032 77.2025 6.51463 76.5124 6.19074C75.8224 5.86685 74.9099 5.70349 73.772 5.70349H65.3677L61.957 29.6968H69.7107L69.7135 29.6996Z" fill="white"/>
</g>
<defs>
<clipPath id="clip0_4317_200">
<rect width="147.68" height="35" fill="white"/>
</clipPath>
</defs>
</svg>
