<svg width="35" height="35" viewBox="0 0 35 35" fill="none" xmlns="http://www.w3.org/2000/svg">
<g clip-path="url(#clip0_4317_214)">
<rect width="35" height="35" rx="17.5" fill="white"/>
<path fill-rule="evenodd" clip-rule="evenodd" d="M33.5 1.5H1.5V33.5H33.5V1.5ZM0 0V35H35V0H0Z" fill="white"/>
<path d="M27.1853 18.1674C26.6086 17.4689 25.8012 17.0033 24.9361 16.7705L27.243 12.4633C27.3007 12.4051 27.3584 12.2887 27.3584 12.1723C27.3584 11.9394 27.1853 11.7648 26.9546 11.7648H20.4376C19.9762 11.7648 19.6302 11.9977 19.4571 12.4051L16.9772 18.4584L14.4396 12.2305C14.3819 11.9394 14.1512 11.7648 13.8628 11.7648C13.5745 11.7648 13.3438 11.9394 13.2861 12.2305L10.7485 18.4584L8.26856 12.4051C8.09554 11.9977 7.69183 11.7066 7.28812 11.7648C6.99975 11.7066 6.71138 11.823 6.53837 12.0559C6.36535 12.2887 6.25 12.5215 6.25 12.8125C6.25 12.9289 6.30767 13.1035 6.36535 13.22L10.1718 21.7179C10.2871 21.9507 10.5178 22.1253 10.7485 22.1253C10.9792 22.1253 11.2676 21.9507 11.3252 21.7179L13.8628 15.3735L16.4005 21.7761C16.4581 22.0089 16.6888 22.1835 16.9772 22.1835C17.2079 22.1835 17.4386 22.0089 17.5539 21.7761L21.1873 13.5692H24.1863L22.4561 17.1197C22.3985 17.2361 22.3408 17.3525 22.3408 17.4689C22.3408 17.5853 22.3408 17.7017 22.4561 17.8182C22.5715 17.8764 22.6868 17.9346 22.8022 17.9346H22.9175C23.7249 17.9346 24.5324 18.1674 25.1668 18.6912C25.6858 19.1569 25.9742 19.8553 25.9165 20.5538C25.9742 21.194 25.6858 21.7761 25.2244 22.1835C24.7054 22.591 24.071 22.7656 23.4366 22.7656C22.5715 22.7074 21.8217 22.2999 21.3604 21.6015C21.1873 21.3105 20.899 21.1358 20.5529 21.1358C20.2646 21.1358 20.0339 21.2522 19.8609 21.4269C19.6878 21.6015 19.5725 21.8925 19.5725 22.1253C19.5725 22.3581 19.6878 22.6492 19.8609 22.8238C20.3222 23.4058 20.899 23.8715 21.5334 24.2207C22.1678 24.5699 22.9175 24.7445 23.6096 24.7445C24.8207 24.8027 25.9742 24.3953 26.8393 23.5222C27.589 22.7656 27.9928 21.7179 27.9928 20.6702C28.0504 19.7389 27.7621 18.8658 27.1853 18.1674Z" fill="#282828"/>
</g>
<defs>
<clipPath id="clip0_4317_214">
<rect width="35" height="35" rx="17.5" fill="white"/>
</clipPath>
</defs>
</svg>
